<mxfile host="app.diagrams.net" modified="2020-10-13T01:58:02.459Z" agent="5.0 (Windows NT 10.0; Win64; x64) AppleWebKit/537.36 (KHTML, like Gecko) Chrome/85.0.4183.121 Safari/537.36" etag="NGli8axZPVDAdk4GKKeW" version="13.7.9" type="github">
  <diagram id="R3sKY5nYNMl9ftEEUWMO" name="Page-1">
    <mxGraphModel dx="1182" dy="683" grid="1" gridSize="10" guides="1" tooltips="1" connect="1" arrows="1" fold="1" page="1" pageScale="1" pageWidth="850" pageHeight="1100" math="0" shadow="0">
      <root>
        <mxCell id="0" />
        <mxCell id="1" parent="0" />
        <mxCell id="lN3gJeHH-t77y-_VV_T1-1" value="-" style="whiteSpace=wrap;html=1;aspect=fixed;fillColor=#ffe6cc;strokeColor=#d79b00;gradientColor=#E6D0DE;glass=0;rounded=0;shadow=0;sketch=0;" vertex="1" parent="1">
          <mxGeometry x="50" y="10" width="820" height="820" as="geometry" />
        </mxCell>
        <mxCell id="lN3gJeHH-t77y-_VV_T1-3" value="&lt;h2&gt;&lt;font face=&quot;Georgia&quot;&gt;GOLF SCORECARD&lt;/font&gt;&lt;/h2&gt;" style="rounded=1;whiteSpace=wrap;html=1;fillColor=#E6D0DE;" vertex="1" parent="1">
          <mxGeometry x="345" y="50" width="190" height="60" as="geometry" />
        </mxCell>
        <mxCell id="lN3gJeHH-t77y-_VV_T1-17" value="" style="shape=table;html=1;whiteSpace=wrap;startSize=0;container=1;collapsible=0;childLayout=tableLayout;rounded=0;shadow=0;glass=0;sketch=0;gradientColor=#FFCC99;fillColor=#E6D0DE;" vertex="1" parent="1">
          <mxGeometry x="80" y="130" width="620" height="570" as="geometry" />
        </mxCell>
        <mxCell id="lN3gJeHH-t77y-_VV_T1-131" style="shape=partialRectangle;html=1;whiteSpace=wrap;collapsible=0;dropTarget=0;pointerEvents=0;fillColor=none;top=0;left=0;bottom=0;right=0;points=[[0,0.5],[1,0.5]];portConstraint=eastwest;" vertex="1" parent="lN3gJeHH-t77y-_VV_T1-17">
          <mxGeometry width="620" height="30" as="geometry" />
        </mxCell>
        <mxCell id="lN3gJeHH-t77y-_VV_T1-132" value="&lt;font face=&quot;Georgia&quot;&gt;HOLE&lt;/font&gt;" style="shape=partialRectangle;html=1;whiteSpace=wrap;connectable=0;fillColor=none;top=0;left=0;bottom=0;right=0;overflow=hidden;" vertex="1" parent="lN3gJeHH-t77y-_VV_T1-131">
          <mxGeometry width="155" height="30" as="geometry" />
        </mxCell>
        <mxCell id="lN3gJeHH-t77y-_VV_T1-133" value="&lt;font face=&quot;Georgia&quot;&gt;PAR&lt;/font&gt;" style="shape=partialRectangle;html=1;whiteSpace=wrap;connectable=0;fillColor=none;top=0;left=0;bottom=0;right=0;overflow=hidden;" vertex="1" parent="lN3gJeHH-t77y-_VV_T1-131">
          <mxGeometry x="155" width="155" height="30" as="geometry" />
        </mxCell>
        <mxCell id="lN3gJeHH-t77y-_VV_T1-134" value="&lt;font face=&quot;Georgia&quot;&gt;SCORE&lt;/font&gt;" style="shape=partialRectangle;html=1;whiteSpace=wrap;connectable=0;fillColor=none;top=0;left=0;bottom=0;right=0;overflow=hidden;" vertex="1" parent="lN3gJeHH-t77y-_VV_T1-131">
          <mxGeometry x="310" width="155" height="30" as="geometry" />
        </mxCell>
        <mxCell id="lN3gJeHH-t77y-_VV_T1-135" value="&lt;font face=&quot;Georgia&quot;&gt;OVER&lt;/font&gt;" style="shape=partialRectangle;html=1;whiteSpace=wrap;connectable=0;fillColor=none;top=0;left=0;bottom=0;right=0;overflow=hidden;" vertex="1" parent="lN3gJeHH-t77y-_VV_T1-131">
          <mxGeometry x="465" width="155" height="30" as="geometry" />
        </mxCell>
        <mxCell id="lN3gJeHH-t77y-_VV_T1-58" style="shape=partialRectangle;html=1;whiteSpace=wrap;collapsible=0;dropTarget=0;pointerEvents=0;fillColor=none;top=0;left=0;bottom=0;right=0;points=[[0,0.5],[1,0.5]];portConstraint=eastwest;" vertex="1" parent="lN3gJeHH-t77y-_VV_T1-17">
          <mxGeometry y="30" width="620" height="30" as="geometry" />
        </mxCell>
        <mxCell id="lN3gJeHH-t77y-_VV_T1-59" value="1" style="shape=partialRectangle;html=1;whiteSpace=wrap;connectable=0;fillColor=none;top=0;left=0;bottom=0;right=0;overflow=hidden;" vertex="1" parent="lN3gJeHH-t77y-_VV_T1-58">
          <mxGeometry width="155" height="30" as="geometry" />
        </mxCell>
        <mxCell id="lN3gJeHH-t77y-_VV_T1-60" style="shape=partialRectangle;html=1;whiteSpace=wrap;connectable=0;fillColor=none;top=0;left=0;bottom=0;right=0;overflow=hidden;" vertex="1" parent="lN3gJeHH-t77y-_VV_T1-58">
          <mxGeometry x="155" width="155" height="30" as="geometry" />
        </mxCell>
        <mxCell id="lN3gJeHH-t77y-_VV_T1-61" style="shape=partialRectangle;html=1;whiteSpace=wrap;connectable=0;fillColor=none;top=0;left=0;bottom=0;right=0;overflow=hidden;" vertex="1" parent="lN3gJeHH-t77y-_VV_T1-58">
          <mxGeometry x="310" width="155" height="30" as="geometry" />
        </mxCell>
        <mxCell id="lN3gJeHH-t77y-_VV_T1-66" style="shape=partialRectangle;html=1;whiteSpace=wrap;connectable=0;fillColor=none;top=0;left=0;bottom=0;right=0;overflow=hidden;" vertex="1" parent="lN3gJeHH-t77y-_VV_T1-58">
          <mxGeometry x="465" width="155" height="30" as="geometry" />
        </mxCell>
        <mxCell id="lN3gJeHH-t77y-_VV_T1-54" style="shape=partialRectangle;html=1;whiteSpace=wrap;collapsible=0;dropTarget=0;pointerEvents=0;fillColor=none;top=0;left=0;bottom=0;right=0;points=[[0,0.5],[1,0.5]];portConstraint=eastwest;" vertex="1" parent="lN3gJeHH-t77y-_VV_T1-17">
          <mxGeometry y="60" width="620" height="30" as="geometry" />
        </mxCell>
        <mxCell id="lN3gJeHH-t77y-_VV_T1-55" value="2" style="shape=partialRectangle;html=1;whiteSpace=wrap;connectable=0;fillColor=none;top=0;left=0;bottom=0;right=0;overflow=hidden;" vertex="1" parent="lN3gJeHH-t77y-_VV_T1-54">
          <mxGeometry width="155" height="30" as="geometry" />
        </mxCell>
        <mxCell id="lN3gJeHH-t77y-_VV_T1-56" style="shape=partialRectangle;html=1;whiteSpace=wrap;connectable=0;fillColor=none;top=0;left=0;bottom=0;right=0;overflow=hidden;" vertex="1" parent="lN3gJeHH-t77y-_VV_T1-54">
          <mxGeometry x="155" width="155" height="30" as="geometry" />
        </mxCell>
        <mxCell id="lN3gJeHH-t77y-_VV_T1-57" style="shape=partialRectangle;html=1;whiteSpace=wrap;connectable=0;fillColor=none;top=0;left=0;bottom=0;right=0;overflow=hidden;" vertex="1" parent="lN3gJeHH-t77y-_VV_T1-54">
          <mxGeometry x="310" width="155" height="30" as="geometry" />
        </mxCell>
        <mxCell id="lN3gJeHH-t77y-_VV_T1-67" style="shape=partialRectangle;html=1;whiteSpace=wrap;connectable=0;fillColor=none;top=0;left=0;bottom=0;right=0;overflow=hidden;" vertex="1" parent="lN3gJeHH-t77y-_VV_T1-54">
          <mxGeometry x="465" width="155" height="30" as="geometry" />
        </mxCell>
        <mxCell id="lN3gJeHH-t77y-_VV_T1-42" style="shape=partialRectangle;html=1;whiteSpace=wrap;collapsible=0;dropTarget=0;pointerEvents=0;fillColor=none;top=0;left=0;bottom=0;right=0;points=[[0,0.5],[1,0.5]];portConstraint=eastwest;" vertex="1" parent="lN3gJeHH-t77y-_VV_T1-17">
          <mxGeometry y="90" width="620" height="30" as="geometry" />
        </mxCell>
        <mxCell id="lN3gJeHH-t77y-_VV_T1-43" value="3" style="shape=partialRectangle;html=1;whiteSpace=wrap;connectable=0;fillColor=none;top=0;left=0;bottom=0;right=0;overflow=hidden;" vertex="1" parent="lN3gJeHH-t77y-_VV_T1-42">
          <mxGeometry width="155" height="30" as="geometry" />
        </mxCell>
        <mxCell id="lN3gJeHH-t77y-_VV_T1-44" style="shape=partialRectangle;html=1;whiteSpace=wrap;connectable=0;fillColor=none;top=0;left=0;bottom=0;right=0;overflow=hidden;" vertex="1" parent="lN3gJeHH-t77y-_VV_T1-42">
          <mxGeometry x="155" width="155" height="30" as="geometry" />
        </mxCell>
        <mxCell id="lN3gJeHH-t77y-_VV_T1-45" style="shape=partialRectangle;html=1;whiteSpace=wrap;connectable=0;fillColor=none;top=0;left=0;bottom=0;right=0;overflow=hidden;" vertex="1" parent="lN3gJeHH-t77y-_VV_T1-42">
          <mxGeometry x="310" width="155" height="30" as="geometry" />
        </mxCell>
        <mxCell id="lN3gJeHH-t77y-_VV_T1-68" style="shape=partialRectangle;html=1;whiteSpace=wrap;connectable=0;fillColor=none;top=0;left=0;bottom=0;right=0;overflow=hidden;" vertex="1" parent="lN3gJeHH-t77y-_VV_T1-42">
          <mxGeometry x="465" width="155" height="30" as="geometry" />
        </mxCell>
        <mxCell id="lN3gJeHH-t77y-_VV_T1-38" style="shape=partialRectangle;html=1;whiteSpace=wrap;collapsible=0;dropTarget=0;pointerEvents=0;fillColor=none;top=0;left=0;bottom=0;right=0;points=[[0,0.5],[1,0.5]];portConstraint=eastwest;" vertex="1" parent="lN3gJeHH-t77y-_VV_T1-17">
          <mxGeometry y="120" width="620" height="30" as="geometry" />
        </mxCell>
        <mxCell id="lN3gJeHH-t77y-_VV_T1-39" value="4" style="shape=partialRectangle;html=1;whiteSpace=wrap;connectable=0;fillColor=none;top=0;left=0;bottom=0;right=0;overflow=hidden;" vertex="1" parent="lN3gJeHH-t77y-_VV_T1-38">
          <mxGeometry width="155" height="30" as="geometry" />
        </mxCell>
        <mxCell id="lN3gJeHH-t77y-_VV_T1-40" style="shape=partialRectangle;html=1;whiteSpace=wrap;connectable=0;fillColor=none;top=0;left=0;bottom=0;right=0;overflow=hidden;" vertex="1" parent="lN3gJeHH-t77y-_VV_T1-38">
          <mxGeometry x="155" width="155" height="30" as="geometry" />
        </mxCell>
        <mxCell id="lN3gJeHH-t77y-_VV_T1-41" style="shape=partialRectangle;html=1;whiteSpace=wrap;connectable=0;fillColor=none;top=0;left=0;bottom=0;right=0;overflow=hidden;" vertex="1" parent="lN3gJeHH-t77y-_VV_T1-38">
          <mxGeometry x="310" width="155" height="30" as="geometry" />
        </mxCell>
        <mxCell id="lN3gJeHH-t77y-_VV_T1-69" style="shape=partialRectangle;html=1;whiteSpace=wrap;connectable=0;fillColor=none;top=0;left=0;bottom=0;right=0;overflow=hidden;" vertex="1" parent="lN3gJeHH-t77y-_VV_T1-38">
          <mxGeometry x="465" width="155" height="30" as="geometry" />
        </mxCell>
        <mxCell id="lN3gJeHH-t77y-_VV_T1-34" style="shape=partialRectangle;html=1;whiteSpace=wrap;collapsible=0;dropTarget=0;pointerEvents=0;fillColor=none;top=0;left=0;bottom=0;right=0;points=[[0,0.5],[1,0.5]];portConstraint=eastwest;" vertex="1" parent="lN3gJeHH-t77y-_VV_T1-17">
          <mxGeometry y="150" width="620" height="30" as="geometry" />
        </mxCell>
        <mxCell id="lN3gJeHH-t77y-_VV_T1-35" value="5" style="shape=partialRectangle;html=1;whiteSpace=wrap;connectable=0;fillColor=none;top=0;left=0;bottom=0;right=0;overflow=hidden;" vertex="1" parent="lN3gJeHH-t77y-_VV_T1-34">
          <mxGeometry width="155" height="30" as="geometry" />
        </mxCell>
        <mxCell id="lN3gJeHH-t77y-_VV_T1-36" style="shape=partialRectangle;html=1;whiteSpace=wrap;connectable=0;fillColor=none;top=0;left=0;bottom=0;right=0;overflow=hidden;" vertex="1" parent="lN3gJeHH-t77y-_VV_T1-34">
          <mxGeometry x="155" width="155" height="30" as="geometry" />
        </mxCell>
        <mxCell id="lN3gJeHH-t77y-_VV_T1-37" style="shape=partialRectangle;html=1;whiteSpace=wrap;connectable=0;fillColor=none;top=0;left=0;bottom=0;right=0;overflow=hidden;" vertex="1" parent="lN3gJeHH-t77y-_VV_T1-34">
          <mxGeometry x="310" width="155" height="30" as="geometry" />
        </mxCell>
        <mxCell id="lN3gJeHH-t77y-_VV_T1-70" style="shape=partialRectangle;html=1;whiteSpace=wrap;connectable=0;fillColor=none;top=0;left=0;bottom=0;right=0;overflow=hidden;" vertex="1" parent="lN3gJeHH-t77y-_VV_T1-34">
          <mxGeometry x="465" width="155" height="30" as="geometry" />
        </mxCell>
        <mxCell id="lN3gJeHH-t77y-_VV_T1-30" style="shape=partialRectangle;html=1;whiteSpace=wrap;collapsible=0;dropTarget=0;pointerEvents=0;fillColor=none;top=0;left=0;bottom=0;right=0;points=[[0,0.5],[1,0.5]];portConstraint=eastwest;" vertex="1" parent="lN3gJeHH-t77y-_VV_T1-17">
          <mxGeometry y="180" width="620" height="30" as="geometry" />
        </mxCell>
        <mxCell id="lN3gJeHH-t77y-_VV_T1-31" value="6" style="shape=partialRectangle;html=1;whiteSpace=wrap;connectable=0;fillColor=none;top=0;left=0;bottom=0;right=0;overflow=hidden;" vertex="1" parent="lN3gJeHH-t77y-_VV_T1-30">
          <mxGeometry width="155" height="30" as="geometry" />
        </mxCell>
        <mxCell id="lN3gJeHH-t77y-_VV_T1-32" style="shape=partialRectangle;html=1;whiteSpace=wrap;connectable=0;fillColor=none;top=0;left=0;bottom=0;right=0;overflow=hidden;" vertex="1" parent="lN3gJeHH-t77y-_VV_T1-30">
          <mxGeometry x="155" width="155" height="30" as="geometry" />
        </mxCell>
        <mxCell id="lN3gJeHH-t77y-_VV_T1-33" style="shape=partialRectangle;html=1;whiteSpace=wrap;connectable=0;fillColor=none;top=0;left=0;bottom=0;right=0;overflow=hidden;" vertex="1" parent="lN3gJeHH-t77y-_VV_T1-30">
          <mxGeometry x="310" width="155" height="30" as="geometry" />
        </mxCell>
        <mxCell id="lN3gJeHH-t77y-_VV_T1-71" style="shape=partialRectangle;html=1;whiteSpace=wrap;connectable=0;fillColor=none;top=0;left=0;bottom=0;right=0;overflow=hidden;" vertex="1" parent="lN3gJeHH-t77y-_VV_T1-30">
          <mxGeometry x="465" width="155" height="30" as="geometry" />
        </mxCell>
        <mxCell id="lN3gJeHH-t77y-_VV_T1-18" value="" style="shape=partialRectangle;html=1;whiteSpace=wrap;collapsible=0;dropTarget=0;pointerEvents=0;fillColor=none;top=0;left=0;bottom=0;right=0;points=[[0,0.5],[1,0.5]];portConstraint=eastwest;" vertex="1" parent="lN3gJeHH-t77y-_VV_T1-17">
          <mxGeometry y="210" width="620" height="30" as="geometry" />
        </mxCell>
        <mxCell id="lN3gJeHH-t77y-_VV_T1-19" value="7" style="shape=partialRectangle;html=1;whiteSpace=wrap;connectable=0;fillColor=none;top=0;left=0;bottom=0;right=0;overflow=hidden;" vertex="1" parent="lN3gJeHH-t77y-_VV_T1-18">
          <mxGeometry width="155" height="30" as="geometry" />
        </mxCell>
        <mxCell id="lN3gJeHH-t77y-_VV_T1-20" value="" style="shape=partialRectangle;html=1;whiteSpace=wrap;connectable=0;fillColor=none;top=0;left=0;bottom=0;right=0;overflow=hidden;" vertex="1" parent="lN3gJeHH-t77y-_VV_T1-18">
          <mxGeometry x="155" width="155" height="30" as="geometry" />
        </mxCell>
        <mxCell id="lN3gJeHH-t77y-_VV_T1-21" value="" style="shape=partialRectangle;html=1;whiteSpace=wrap;connectable=0;fillColor=none;top=0;left=0;bottom=0;right=0;overflow=hidden;" vertex="1" parent="lN3gJeHH-t77y-_VV_T1-18">
          <mxGeometry x="310" width="155" height="30" as="geometry" />
        </mxCell>
        <mxCell id="lN3gJeHH-t77y-_VV_T1-72" style="shape=partialRectangle;html=1;whiteSpace=wrap;connectable=0;fillColor=none;top=0;left=0;bottom=0;right=0;overflow=hidden;" vertex="1" parent="lN3gJeHH-t77y-_VV_T1-18">
          <mxGeometry x="465" width="155" height="30" as="geometry" />
        </mxCell>
        <mxCell id="lN3gJeHH-t77y-_VV_T1-46" style="shape=partialRectangle;html=1;whiteSpace=wrap;collapsible=0;dropTarget=0;pointerEvents=0;fillColor=none;top=0;left=0;bottom=0;right=0;points=[[0,0.5],[1,0.5]];portConstraint=eastwest;" vertex="1" parent="lN3gJeHH-t77y-_VV_T1-17">
          <mxGeometry y="240" width="620" height="30" as="geometry" />
        </mxCell>
        <mxCell id="lN3gJeHH-t77y-_VV_T1-47" value="8" style="shape=partialRectangle;html=1;whiteSpace=wrap;connectable=0;fillColor=none;top=0;left=0;bottom=0;right=0;overflow=hidden;" vertex="1" parent="lN3gJeHH-t77y-_VV_T1-46">
          <mxGeometry width="155" height="30" as="geometry" />
        </mxCell>
        <mxCell id="lN3gJeHH-t77y-_VV_T1-48" style="shape=partialRectangle;html=1;whiteSpace=wrap;connectable=0;fillColor=none;top=0;left=0;bottom=0;right=0;overflow=hidden;" vertex="1" parent="lN3gJeHH-t77y-_VV_T1-46">
          <mxGeometry x="155" width="155" height="30" as="geometry" />
        </mxCell>
        <mxCell id="lN3gJeHH-t77y-_VV_T1-49" style="shape=partialRectangle;html=1;whiteSpace=wrap;connectable=0;fillColor=none;top=0;left=0;bottom=0;right=0;overflow=hidden;" vertex="1" parent="lN3gJeHH-t77y-_VV_T1-46">
          <mxGeometry x="310" width="155" height="30" as="geometry" />
        </mxCell>
        <mxCell id="lN3gJeHH-t77y-_VV_T1-73" style="shape=partialRectangle;html=1;whiteSpace=wrap;connectable=0;fillColor=none;top=0;left=0;bottom=0;right=0;overflow=hidden;" vertex="1" parent="lN3gJeHH-t77y-_VV_T1-46">
          <mxGeometry x="465" width="155" height="30" as="geometry" />
        </mxCell>
        <mxCell id="lN3gJeHH-t77y-_VV_T1-50" style="shape=partialRectangle;html=1;whiteSpace=wrap;collapsible=0;dropTarget=0;pointerEvents=0;fillColor=none;top=0;left=0;bottom=0;right=0;points=[[0,0.5],[1,0.5]];portConstraint=eastwest;" vertex="1" parent="lN3gJeHH-t77y-_VV_T1-17">
          <mxGeometry y="270" width="620" height="30" as="geometry" />
        </mxCell>
        <mxCell id="lN3gJeHH-t77y-_VV_T1-51" value="9" style="shape=partialRectangle;html=1;whiteSpace=wrap;connectable=0;fillColor=none;top=0;left=0;bottom=0;right=0;overflow=hidden;" vertex="1" parent="lN3gJeHH-t77y-_VV_T1-50">
          <mxGeometry width="155" height="30" as="geometry" />
        </mxCell>
        <mxCell id="lN3gJeHH-t77y-_VV_T1-52" style="shape=partialRectangle;html=1;whiteSpace=wrap;connectable=0;fillColor=none;top=0;left=0;bottom=0;right=0;overflow=hidden;" vertex="1" parent="lN3gJeHH-t77y-_VV_T1-50">
          <mxGeometry x="155" width="155" height="30" as="geometry" />
        </mxCell>
        <mxCell id="lN3gJeHH-t77y-_VV_T1-53" style="shape=partialRectangle;html=1;whiteSpace=wrap;connectable=0;fillColor=none;top=0;left=0;bottom=0;right=0;overflow=hidden;" vertex="1" parent="lN3gJeHH-t77y-_VV_T1-50">
          <mxGeometry x="310" width="155" height="30" as="geometry" />
        </mxCell>
        <mxCell id="lN3gJeHH-t77y-_VV_T1-74" style="shape=partialRectangle;html=1;whiteSpace=wrap;connectable=0;fillColor=none;top=0;left=0;bottom=0;right=0;overflow=hidden;" vertex="1" parent="lN3gJeHH-t77y-_VV_T1-50">
          <mxGeometry x="465" width="155" height="30" as="geometry" />
        </mxCell>
        <mxCell id="lN3gJeHH-t77y-_VV_T1-106" style="shape=partialRectangle;html=1;whiteSpace=wrap;collapsible=0;dropTarget=0;pointerEvents=0;fillColor=none;top=0;left=0;bottom=0;right=0;points=[[0,0.5],[1,0.5]];portConstraint=eastwest;" vertex="1" parent="lN3gJeHH-t77y-_VV_T1-17">
          <mxGeometry y="300" width="620" height="30" as="geometry" />
        </mxCell>
        <mxCell id="lN3gJeHH-t77y-_VV_T1-107" value="10" style="shape=partialRectangle;html=1;whiteSpace=wrap;connectable=0;fillColor=none;top=0;left=0;bottom=0;right=0;overflow=hidden;" vertex="1" parent="lN3gJeHH-t77y-_VV_T1-106">
          <mxGeometry width="155" height="30" as="geometry" />
        </mxCell>
        <mxCell id="lN3gJeHH-t77y-_VV_T1-108" style="shape=partialRectangle;html=1;whiteSpace=wrap;connectable=0;fillColor=none;top=0;left=0;bottom=0;right=0;overflow=hidden;" vertex="1" parent="lN3gJeHH-t77y-_VV_T1-106">
          <mxGeometry x="155" width="155" height="30" as="geometry" />
        </mxCell>
        <mxCell id="lN3gJeHH-t77y-_VV_T1-109" style="shape=partialRectangle;html=1;whiteSpace=wrap;connectable=0;fillColor=none;top=0;left=0;bottom=0;right=0;overflow=hidden;" vertex="1" parent="lN3gJeHH-t77y-_VV_T1-106">
          <mxGeometry x="310" width="155" height="30" as="geometry" />
        </mxCell>
        <mxCell id="lN3gJeHH-t77y-_VV_T1-110" style="shape=partialRectangle;html=1;whiteSpace=wrap;connectable=0;fillColor=none;top=0;left=0;bottom=0;right=0;overflow=hidden;" vertex="1" parent="lN3gJeHH-t77y-_VV_T1-106">
          <mxGeometry x="465" width="155" height="30" as="geometry" />
        </mxCell>
        <mxCell id="lN3gJeHH-t77y-_VV_T1-111" style="shape=partialRectangle;html=1;whiteSpace=wrap;collapsible=0;dropTarget=0;pointerEvents=0;fillColor=none;top=0;left=0;bottom=0;right=0;points=[[0,0.5],[1,0.5]];portConstraint=eastwest;" vertex="1" parent="lN3gJeHH-t77y-_VV_T1-17">
          <mxGeometry y="330" width="620" height="30" as="geometry" />
        </mxCell>
        <mxCell id="lN3gJeHH-t77y-_VV_T1-112" value="11" style="shape=partialRectangle;html=1;whiteSpace=wrap;connectable=0;fillColor=none;top=0;left=0;bottom=0;right=0;overflow=hidden;" vertex="1" parent="lN3gJeHH-t77y-_VV_T1-111">
          <mxGeometry width="155" height="30" as="geometry" />
        </mxCell>
        <mxCell id="lN3gJeHH-t77y-_VV_T1-113" style="shape=partialRectangle;html=1;whiteSpace=wrap;connectable=0;fillColor=none;top=0;left=0;bottom=0;right=0;overflow=hidden;" vertex="1" parent="lN3gJeHH-t77y-_VV_T1-111">
          <mxGeometry x="155" width="155" height="30" as="geometry" />
        </mxCell>
        <mxCell id="lN3gJeHH-t77y-_VV_T1-114" style="shape=partialRectangle;html=1;whiteSpace=wrap;connectable=0;fillColor=none;top=0;left=0;bottom=0;right=0;overflow=hidden;" vertex="1" parent="lN3gJeHH-t77y-_VV_T1-111">
          <mxGeometry x="310" width="155" height="30" as="geometry" />
        </mxCell>
        <mxCell id="lN3gJeHH-t77y-_VV_T1-115" style="shape=partialRectangle;html=1;whiteSpace=wrap;connectable=0;fillColor=none;top=0;left=0;bottom=0;right=0;overflow=hidden;" vertex="1" parent="lN3gJeHH-t77y-_VV_T1-111">
          <mxGeometry x="465" width="155" height="30" as="geometry" />
        </mxCell>
        <mxCell id="lN3gJeHH-t77y-_VV_T1-116" style="shape=partialRectangle;html=1;whiteSpace=wrap;collapsible=0;dropTarget=0;pointerEvents=0;fillColor=none;top=0;left=0;bottom=0;right=0;points=[[0,0.5],[1,0.5]];portConstraint=eastwest;" vertex="1" parent="lN3gJeHH-t77y-_VV_T1-17">
          <mxGeometry y="360" width="620" height="30" as="geometry" />
        </mxCell>
        <mxCell id="lN3gJeHH-t77y-_VV_T1-117" value="12" style="shape=partialRectangle;html=1;whiteSpace=wrap;connectable=0;fillColor=none;top=0;left=0;bottom=0;right=0;overflow=hidden;" vertex="1" parent="lN3gJeHH-t77y-_VV_T1-116">
          <mxGeometry width="155" height="30" as="geometry" />
        </mxCell>
        <mxCell id="lN3gJeHH-t77y-_VV_T1-118" style="shape=partialRectangle;html=1;whiteSpace=wrap;connectable=0;fillColor=none;top=0;left=0;bottom=0;right=0;overflow=hidden;" vertex="1" parent="lN3gJeHH-t77y-_VV_T1-116">
          <mxGeometry x="155" width="155" height="30" as="geometry" />
        </mxCell>
        <mxCell id="lN3gJeHH-t77y-_VV_T1-119" style="shape=partialRectangle;html=1;whiteSpace=wrap;connectable=0;fillColor=none;top=0;left=0;bottom=0;right=0;overflow=hidden;" vertex="1" parent="lN3gJeHH-t77y-_VV_T1-116">
          <mxGeometry x="310" width="155" height="30" as="geometry" />
        </mxCell>
        <mxCell id="lN3gJeHH-t77y-_VV_T1-120" style="shape=partialRectangle;html=1;whiteSpace=wrap;connectable=0;fillColor=none;top=0;left=0;bottom=0;right=0;overflow=hidden;" vertex="1" parent="lN3gJeHH-t77y-_VV_T1-116">
          <mxGeometry x="465" width="155" height="30" as="geometry" />
        </mxCell>
        <mxCell id="lN3gJeHH-t77y-_VV_T1-121" style="shape=partialRectangle;html=1;whiteSpace=wrap;collapsible=0;dropTarget=0;pointerEvents=0;fillColor=none;top=0;left=0;bottom=0;right=0;points=[[0,0.5],[1,0.5]];portConstraint=eastwest;" vertex="1" parent="lN3gJeHH-t77y-_VV_T1-17">
          <mxGeometry y="390" width="620" height="30" as="geometry" />
        </mxCell>
        <mxCell id="lN3gJeHH-t77y-_VV_T1-122" value="13" style="shape=partialRectangle;html=1;whiteSpace=wrap;connectable=0;fillColor=none;top=0;left=0;bottom=0;right=0;overflow=hidden;" vertex="1" parent="lN3gJeHH-t77y-_VV_T1-121">
          <mxGeometry width="155" height="30" as="geometry" />
        </mxCell>
        <mxCell id="lN3gJeHH-t77y-_VV_T1-123" style="shape=partialRectangle;html=1;whiteSpace=wrap;connectable=0;fillColor=none;top=0;left=0;bottom=0;right=0;overflow=hidden;" vertex="1" parent="lN3gJeHH-t77y-_VV_T1-121">
          <mxGeometry x="155" width="155" height="30" as="geometry" />
        </mxCell>
        <mxCell id="lN3gJeHH-t77y-_VV_T1-124" style="shape=partialRectangle;html=1;whiteSpace=wrap;connectable=0;fillColor=none;top=0;left=0;bottom=0;right=0;overflow=hidden;" vertex="1" parent="lN3gJeHH-t77y-_VV_T1-121">
          <mxGeometry x="310" width="155" height="30" as="geometry" />
        </mxCell>
        <mxCell id="lN3gJeHH-t77y-_VV_T1-125" style="shape=partialRectangle;html=1;whiteSpace=wrap;connectable=0;fillColor=none;top=0;left=0;bottom=0;right=0;overflow=hidden;" vertex="1" parent="lN3gJeHH-t77y-_VV_T1-121">
          <mxGeometry x="465" width="155" height="30" as="geometry" />
        </mxCell>
        <mxCell id="lN3gJeHH-t77y-_VV_T1-136" style="shape=partialRectangle;html=1;whiteSpace=wrap;collapsible=0;dropTarget=0;pointerEvents=0;fillColor=none;top=0;left=0;bottom=0;right=0;points=[[0,0.5],[1,0.5]];portConstraint=eastwest;" vertex="1" parent="lN3gJeHH-t77y-_VV_T1-17">
          <mxGeometry y="420" width="620" height="30" as="geometry" />
        </mxCell>
        <mxCell id="lN3gJeHH-t77y-_VV_T1-137" value="14" style="shape=partialRectangle;html=1;whiteSpace=wrap;connectable=0;fillColor=none;top=0;left=0;bottom=0;right=0;overflow=hidden;" vertex="1" parent="lN3gJeHH-t77y-_VV_T1-136">
          <mxGeometry width="155" height="30" as="geometry" />
        </mxCell>
        <mxCell id="lN3gJeHH-t77y-_VV_T1-138" style="shape=partialRectangle;html=1;whiteSpace=wrap;connectable=0;fillColor=none;top=0;left=0;bottom=0;right=0;overflow=hidden;" vertex="1" parent="lN3gJeHH-t77y-_VV_T1-136">
          <mxGeometry x="155" width="155" height="30" as="geometry" />
        </mxCell>
        <mxCell id="lN3gJeHH-t77y-_VV_T1-139" style="shape=partialRectangle;html=1;whiteSpace=wrap;connectable=0;fillColor=none;top=0;left=0;bottom=0;right=0;overflow=hidden;" vertex="1" parent="lN3gJeHH-t77y-_VV_T1-136">
          <mxGeometry x="310" width="155" height="30" as="geometry" />
        </mxCell>
        <mxCell id="lN3gJeHH-t77y-_VV_T1-140" style="shape=partialRectangle;html=1;whiteSpace=wrap;connectable=0;fillColor=none;top=0;left=0;bottom=0;right=0;overflow=hidden;" vertex="1" parent="lN3gJeHH-t77y-_VV_T1-136">
          <mxGeometry x="465" width="155" height="30" as="geometry" />
        </mxCell>
        <mxCell id="lN3gJeHH-t77y-_VV_T1-141" style="shape=partialRectangle;html=1;whiteSpace=wrap;collapsible=0;dropTarget=0;pointerEvents=0;fillColor=none;top=0;left=0;bottom=0;right=0;points=[[0,0.5],[1,0.5]];portConstraint=eastwest;" vertex="1" parent="lN3gJeHH-t77y-_VV_T1-17">
          <mxGeometry y="450" width="620" height="30" as="geometry" />
        </mxCell>
        <mxCell id="lN3gJeHH-t77y-_VV_T1-142" value="15" style="shape=partialRectangle;html=1;whiteSpace=wrap;connectable=0;fillColor=none;top=0;left=0;bottom=0;right=0;overflow=hidden;" vertex="1" parent="lN3gJeHH-t77y-_VV_T1-141">
          <mxGeometry width="155" height="30" as="geometry" />
        </mxCell>
        <mxCell id="lN3gJeHH-t77y-_VV_T1-143" style="shape=partialRectangle;html=1;whiteSpace=wrap;connectable=0;fillColor=none;top=0;left=0;bottom=0;right=0;overflow=hidden;" vertex="1" parent="lN3gJeHH-t77y-_VV_T1-141">
          <mxGeometry x="155" width="155" height="30" as="geometry" />
        </mxCell>
        <mxCell id="lN3gJeHH-t77y-_VV_T1-144" style="shape=partialRectangle;html=1;whiteSpace=wrap;connectable=0;fillColor=none;top=0;left=0;bottom=0;right=0;overflow=hidden;" vertex="1" parent="lN3gJeHH-t77y-_VV_T1-141">
          <mxGeometry x="310" width="155" height="30" as="geometry" />
        </mxCell>
        <mxCell id="lN3gJeHH-t77y-_VV_T1-145" style="shape=partialRectangle;html=1;whiteSpace=wrap;connectable=0;fillColor=none;top=0;left=0;bottom=0;right=0;overflow=hidden;" vertex="1" parent="lN3gJeHH-t77y-_VV_T1-141">
          <mxGeometry x="465" width="155" height="30" as="geometry" />
        </mxCell>
        <mxCell id="lN3gJeHH-t77y-_VV_T1-146" style="shape=partialRectangle;html=1;whiteSpace=wrap;collapsible=0;dropTarget=0;pointerEvents=0;fillColor=none;top=0;left=0;bottom=0;right=0;points=[[0,0.5],[1,0.5]];portConstraint=eastwest;" vertex="1" parent="lN3gJeHH-t77y-_VV_T1-17">
          <mxGeometry y="480" width="620" height="30" as="geometry" />
        </mxCell>
        <mxCell id="lN3gJeHH-t77y-_VV_T1-147" value="16" style="shape=partialRectangle;html=1;whiteSpace=wrap;connectable=0;fillColor=none;top=0;left=0;bottom=0;right=0;overflow=hidden;" vertex="1" parent="lN3gJeHH-t77y-_VV_T1-146">
          <mxGeometry width="155" height="30" as="geometry" />
        </mxCell>
        <mxCell id="lN3gJeHH-t77y-_VV_T1-148" style="shape=partialRectangle;html=1;whiteSpace=wrap;connectable=0;fillColor=none;top=0;left=0;bottom=0;right=0;overflow=hidden;" vertex="1" parent="lN3gJeHH-t77y-_VV_T1-146">
          <mxGeometry x="155" width="155" height="30" as="geometry" />
        </mxCell>
        <mxCell id="lN3gJeHH-t77y-_VV_T1-149" style="shape=partialRectangle;html=1;whiteSpace=wrap;connectable=0;fillColor=none;top=0;left=0;bottom=0;right=0;overflow=hidden;" vertex="1" parent="lN3gJeHH-t77y-_VV_T1-146">
          <mxGeometry x="310" width="155" height="30" as="geometry" />
        </mxCell>
        <mxCell id="lN3gJeHH-t77y-_VV_T1-150" style="shape=partialRectangle;html=1;whiteSpace=wrap;connectable=0;fillColor=none;top=0;left=0;bottom=0;right=0;overflow=hidden;" vertex="1" parent="lN3gJeHH-t77y-_VV_T1-146">
          <mxGeometry x="465" width="155" height="30" as="geometry" />
        </mxCell>
        <mxCell id="lN3gJeHH-t77y-_VV_T1-151" style="shape=partialRectangle;html=1;whiteSpace=wrap;collapsible=0;dropTarget=0;pointerEvents=0;fillColor=none;top=0;left=0;bottom=0;right=0;points=[[0,0.5],[1,0.5]];portConstraint=eastwest;" vertex="1" parent="lN3gJeHH-t77y-_VV_T1-17">
          <mxGeometry y="510" width="620" height="30" as="geometry" />
        </mxCell>
        <mxCell id="lN3gJeHH-t77y-_VV_T1-152" value="17" style="shape=partialRectangle;html=1;whiteSpace=wrap;connectable=0;fillColor=none;top=0;left=0;bottom=0;right=0;overflow=hidden;" vertex="1" parent="lN3gJeHH-t77y-_VV_T1-151">
          <mxGeometry width="155" height="30" as="geometry" />
        </mxCell>
        <mxCell id="lN3gJeHH-t77y-_VV_T1-153" style="shape=partialRectangle;html=1;whiteSpace=wrap;connectable=0;fillColor=none;top=0;left=0;bottom=0;right=0;overflow=hidden;" vertex="1" parent="lN3gJeHH-t77y-_VV_T1-151">
          <mxGeometry x="155" width="155" height="30" as="geometry" />
        </mxCell>
        <mxCell id="lN3gJeHH-t77y-_VV_T1-154" style="shape=partialRectangle;html=1;whiteSpace=wrap;connectable=0;fillColor=none;top=0;left=0;bottom=0;right=0;overflow=hidden;" vertex="1" parent="lN3gJeHH-t77y-_VV_T1-151">
          <mxGeometry x="310" width="155" height="30" as="geometry" />
        </mxCell>
        <mxCell id="lN3gJeHH-t77y-_VV_T1-155" style="shape=partialRectangle;html=1;whiteSpace=wrap;connectable=0;fillColor=none;top=0;left=0;bottom=0;right=0;overflow=hidden;" vertex="1" parent="lN3gJeHH-t77y-_VV_T1-151">
          <mxGeometry x="465" width="155" height="30" as="geometry" />
        </mxCell>
        <mxCell id="lN3gJeHH-t77y-_VV_T1-156" style="shape=partialRectangle;html=1;whiteSpace=wrap;collapsible=0;dropTarget=0;pointerEvents=0;fillColor=none;top=0;left=0;bottom=0;right=0;points=[[0,0.5],[1,0.5]];portConstraint=eastwest;" vertex="1" parent="lN3gJeHH-t77y-_VV_T1-17">
          <mxGeometry y="540" width="620" height="30" as="geometry" />
        </mxCell>
        <mxCell id="lN3gJeHH-t77y-_VV_T1-157" value="18" style="shape=partialRectangle;html=1;whiteSpace=wrap;connectable=0;fillColor=none;top=0;left=0;bottom=0;right=0;overflow=hidden;" vertex="1" parent="lN3gJeHH-t77y-_VV_T1-156">
          <mxGeometry width="155" height="30" as="geometry" />
        </mxCell>
        <mxCell id="lN3gJeHH-t77y-_VV_T1-158" style="shape=partialRectangle;html=1;whiteSpace=wrap;connectable=0;fillColor=none;top=0;left=0;bottom=0;right=0;overflow=hidden;" vertex="1" parent="lN3gJeHH-t77y-_VV_T1-156">
          <mxGeometry x="155" width="155" height="30" as="geometry" />
        </mxCell>
        <mxCell id="lN3gJeHH-t77y-_VV_T1-159" style="shape=partialRectangle;html=1;whiteSpace=wrap;connectable=0;fillColor=none;top=0;left=0;bottom=0;right=0;overflow=hidden;" vertex="1" parent="lN3gJeHH-t77y-_VV_T1-156">
          <mxGeometry x="310" width="155" height="30" as="geometry" />
        </mxCell>
        <mxCell id="lN3gJeHH-t77y-_VV_T1-160" style="shape=partialRectangle;html=1;whiteSpace=wrap;connectable=0;fillColor=none;top=0;left=0;bottom=0;right=0;overflow=hidden;" vertex="1" parent="lN3gJeHH-t77y-_VV_T1-156">
          <mxGeometry x="465" width="155" height="30" as="geometry" />
        </mxCell>
        <mxCell id="lN3gJeHH-t77y-_VV_T1-162" value="&lt;font face=&quot;Georgia&quot;&gt;Actions&lt;/font&gt;" style="shape=partialRectangle;whiteSpace=wrap;html=1;bottom=1;right=1;left=1;top=0;routingCenterX=-0.5;rounded=0;shadow=0;glass=0;sketch=0;strokeColor=#b85450;fillColor=#FFD966;" vertex="1" parent="1">
          <mxGeometry x="710" y="110" width="150" height="30" as="geometry" />
        </mxCell>
        <mxCell id="lN3gJeHH-t77y-_VV_T1-181" value="+" style="shape=ext;double=1;rounded=1;whiteSpace=wrap;html=1;shadow=0;glass=0;sketch=0;fillColor=#d5e8d4;strokeColor=#82b366;" vertex="1" parent="1">
          <mxGeometry x="740" y="160" width="30" height="30" as="geometry" />
        </mxCell>
        <mxCell id="lN3gJeHH-t77y-_VV_T1-184" value="+" style="shape=ext;double=1;rounded=1;whiteSpace=wrap;html=1;shadow=0;glass=0;sketch=0;fillColor=#d5e8d4;strokeColor=#82b366;" vertex="1" parent="1">
          <mxGeometry x="740" y="190" width="30" height="30" as="geometry" />
        </mxCell>
        <mxCell id="lN3gJeHH-t77y-_VV_T1-185" value="+" style="shape=ext;double=1;rounded=1;whiteSpace=wrap;html=1;shadow=0;glass=0;sketch=0;fillColor=#d5e8d4;strokeColor=#82b366;" vertex="1" parent="1">
          <mxGeometry x="740" y="220" width="30" height="30" as="geometry" />
        </mxCell>
        <mxCell id="lN3gJeHH-t77y-_VV_T1-186" value="+" style="shape=ext;double=1;rounded=1;whiteSpace=wrap;html=1;shadow=0;glass=0;sketch=0;fillColor=#d5e8d4;strokeColor=#82b366;" vertex="1" parent="1">
          <mxGeometry x="740" y="250" width="30" height="30" as="geometry" />
        </mxCell>
        <mxCell id="lN3gJeHH-t77y-_VV_T1-187" value="+" style="shape=ext;double=1;rounded=1;whiteSpace=wrap;html=1;shadow=0;glass=0;sketch=0;fillColor=#d5e8d4;strokeColor=#82b366;" vertex="1" parent="1">
          <mxGeometry x="740" y="280" width="30" height="30" as="geometry" />
        </mxCell>
        <mxCell id="lN3gJeHH-t77y-_VV_T1-188" value="+" style="shape=ext;double=1;rounded=1;whiteSpace=wrap;html=1;shadow=0;glass=0;sketch=0;fillColor=#d5e8d4;strokeColor=#82b366;" vertex="1" parent="1">
          <mxGeometry x="740" y="310" width="30" height="30" as="geometry" />
        </mxCell>
        <mxCell id="lN3gJeHH-t77y-_VV_T1-189" value="+" style="shape=ext;double=1;rounded=1;whiteSpace=wrap;html=1;shadow=0;glass=0;sketch=0;fillColor=#d5e8d4;strokeColor=#82b366;" vertex="1" parent="1">
          <mxGeometry x="740" y="340" width="30" height="30" as="geometry" />
        </mxCell>
        <mxCell id="lN3gJeHH-t77y-_VV_T1-190" value="+" style="shape=ext;double=1;rounded=1;whiteSpace=wrap;html=1;shadow=0;glass=0;sketch=0;fillColor=#d5e8d4;strokeColor=#82b366;" vertex="1" parent="1">
          <mxGeometry x="740" y="370" width="30" height="30" as="geometry" />
        </mxCell>
        <mxCell id="lN3gJeHH-t77y-_VV_T1-191" value="+" style="shape=ext;double=1;rounded=1;whiteSpace=wrap;html=1;shadow=0;glass=0;sketch=0;fillColor=#d5e8d4;strokeColor=#82b366;" vertex="1" parent="1">
          <mxGeometry x="740" y="400" width="30" height="30" as="geometry" />
        </mxCell>
        <mxCell id="lN3gJeHH-t77y-_VV_T1-192" value="+" style="shape=ext;double=1;rounded=1;whiteSpace=wrap;html=1;shadow=0;glass=0;sketch=0;fillColor=#d5e8d4;strokeColor=#82b366;" vertex="1" parent="1">
          <mxGeometry x="740" y="430" width="30" height="30" as="geometry" />
        </mxCell>
        <mxCell id="lN3gJeHH-t77y-_VV_T1-193" value="+" style="shape=ext;double=1;rounded=1;whiteSpace=wrap;html=1;shadow=0;glass=0;sketch=0;fillColor=#d5e8d4;strokeColor=#82b366;" vertex="1" parent="1">
          <mxGeometry x="740" y="460" width="30" height="30" as="geometry" />
        </mxCell>
        <mxCell id="lN3gJeHH-t77y-_VV_T1-194" value="+" style="shape=ext;double=1;rounded=1;whiteSpace=wrap;html=1;shadow=0;glass=0;sketch=0;fillColor=#d5e8d4;strokeColor=#82b366;" vertex="1" parent="1">
          <mxGeometry x="740" y="490" width="30" height="30" as="geometry" />
        </mxCell>
        <mxCell id="lN3gJeHH-t77y-_VV_T1-195" value="+" style="shape=ext;double=1;rounded=1;whiteSpace=wrap;html=1;shadow=0;glass=0;sketch=0;fillColor=#d5e8d4;strokeColor=#82b366;" vertex="1" parent="1">
          <mxGeometry x="740" y="520" width="30" height="30" as="geometry" />
        </mxCell>
        <mxCell id="lN3gJeHH-t77y-_VV_T1-196" value="+" style="shape=ext;double=1;rounded=1;whiteSpace=wrap;html=1;shadow=0;glass=0;sketch=0;fillColor=#d5e8d4;strokeColor=#82b366;" vertex="1" parent="1">
          <mxGeometry x="740" y="550" width="30" height="30" as="geometry" />
        </mxCell>
        <mxCell id="lN3gJeHH-t77y-_VV_T1-197" value="+" style="shape=ext;double=1;rounded=1;whiteSpace=wrap;html=1;shadow=0;glass=0;sketch=0;fillColor=#d5e8d4;strokeColor=#82b366;" vertex="1" parent="1">
          <mxGeometry x="740" y="580" width="30" height="30" as="geometry" />
        </mxCell>
        <mxCell id="lN3gJeHH-t77y-_VV_T1-198" value="+" style="shape=ext;double=1;rounded=1;whiteSpace=wrap;html=1;shadow=0;glass=0;sketch=0;fillColor=#d5e8d4;strokeColor=#82b366;" vertex="1" parent="1">
          <mxGeometry x="740" y="610" width="30" height="30" as="geometry" />
        </mxCell>
        <mxCell id="lN3gJeHH-t77y-_VV_T1-199" value="+" style="shape=ext;double=1;rounded=1;whiteSpace=wrap;html=1;shadow=0;glass=0;sketch=0;fillColor=#d5e8d4;strokeColor=#82b366;" vertex="1" parent="1">
          <mxGeometry x="740" y="640" width="30" height="30" as="geometry" />
        </mxCell>
        <mxCell id="lN3gJeHH-t77y-_VV_T1-200" value="+" style="shape=ext;double=1;rounded=1;whiteSpace=wrap;html=1;shadow=0;glass=0;sketch=0;fillColor=#d5e8d4;strokeColor=#82b366;" vertex="1" parent="1">
          <mxGeometry x="740" y="670" width="30" height="30" as="geometry" />
        </mxCell>
        <mxCell id="lN3gJeHH-t77y-_VV_T1-204" value="-" style="shape=ext;double=1;rounded=1;whiteSpace=wrap;html=1;shadow=0;glass=0;sketch=0;fillColor=#f8cecc;strokeColor=#b85450;" vertex="1" parent="1">
          <mxGeometry x="810" y="160" width="30" height="30" as="geometry" />
        </mxCell>
        <mxCell id="lN3gJeHH-t77y-_VV_T1-205" value="-" style="shape=ext;double=1;rounded=1;whiteSpace=wrap;html=1;shadow=0;glass=0;sketch=0;fillColor=#f8cecc;strokeColor=#b85450;" vertex="1" parent="1">
          <mxGeometry x="810" y="190" width="30" height="30" as="geometry" />
        </mxCell>
        <mxCell id="lN3gJeHH-t77y-_VV_T1-206" value="-" style="shape=ext;double=1;rounded=1;whiteSpace=wrap;html=1;shadow=0;glass=0;sketch=0;fillColor=#f8cecc;strokeColor=#b85450;" vertex="1" parent="1">
          <mxGeometry x="810" y="220" width="30" height="30" as="geometry" />
        </mxCell>
        <mxCell id="lN3gJeHH-t77y-_VV_T1-207" value="-" style="shape=ext;double=1;rounded=1;whiteSpace=wrap;html=1;shadow=0;glass=0;sketch=0;fillColor=#f8cecc;strokeColor=#b85450;" vertex="1" parent="1">
          <mxGeometry x="810" y="250" width="30" height="30" as="geometry" />
        </mxCell>
        <mxCell id="lN3gJeHH-t77y-_VV_T1-208" value="-" style="shape=ext;double=1;rounded=1;whiteSpace=wrap;html=1;shadow=0;glass=0;sketch=0;fillColor=#f8cecc;strokeColor=#b85450;" vertex="1" parent="1">
          <mxGeometry x="810" y="280" width="30" height="30" as="geometry" />
        </mxCell>
        <mxCell id="lN3gJeHH-t77y-_VV_T1-209" value="-" style="shape=ext;double=1;rounded=1;whiteSpace=wrap;html=1;shadow=0;glass=0;sketch=0;fillColor=#f8cecc;strokeColor=#b85450;" vertex="1" parent="1">
          <mxGeometry x="810" y="310" width="30" height="30" as="geometry" />
        </mxCell>
        <mxCell id="lN3gJeHH-t77y-_VV_T1-210" value="-" style="shape=ext;double=1;rounded=1;whiteSpace=wrap;html=1;shadow=0;glass=0;sketch=0;fillColor=#f8cecc;strokeColor=#b85450;" vertex="1" parent="1">
          <mxGeometry x="810" y="340" width="30" height="30" as="geometry" />
        </mxCell>
        <mxCell id="lN3gJeHH-t77y-_VV_T1-211" value="-" style="shape=ext;double=1;rounded=1;whiteSpace=wrap;html=1;shadow=0;glass=0;sketch=0;fillColor=#f8cecc;strokeColor=#b85450;" vertex="1" parent="1">
          <mxGeometry x="810" y="370" width="30" height="30" as="geometry" />
        </mxCell>
        <mxCell id="lN3gJeHH-t77y-_VV_T1-212" value="-" style="shape=ext;double=1;rounded=1;whiteSpace=wrap;html=1;shadow=0;glass=0;sketch=0;fillColor=#f8cecc;strokeColor=#b85450;" vertex="1" parent="1">
          <mxGeometry x="810" y="400" width="30" height="30" as="geometry" />
        </mxCell>
        <mxCell id="lN3gJeHH-t77y-_VV_T1-213" value="-" style="shape=ext;double=1;rounded=1;whiteSpace=wrap;html=1;shadow=0;glass=0;sketch=0;fillColor=#f8cecc;strokeColor=#b85450;" vertex="1" parent="1">
          <mxGeometry x="810" y="460" width="30" height="30" as="geometry" />
        </mxCell>
        <mxCell id="lN3gJeHH-t77y-_VV_T1-214" value="-" style="shape=ext;double=1;rounded=1;whiteSpace=wrap;html=1;shadow=0;glass=0;sketch=0;fillColor=#f8cecc;strokeColor=#b85450;" vertex="1" parent="1">
          <mxGeometry x="810" y="490" width="30" height="30" as="geometry" />
        </mxCell>
        <mxCell id="lN3gJeHH-t77y-_VV_T1-215" value="-" style="shape=ext;double=1;rounded=1;whiteSpace=wrap;html=1;shadow=0;glass=0;sketch=0;fillColor=#f8cecc;strokeColor=#b85450;" vertex="1" parent="1">
          <mxGeometry x="810" y="520" width="30" height="30" as="geometry" />
        </mxCell>
        <mxCell id="lN3gJeHH-t77y-_VV_T1-216" value="-" style="shape=ext;double=1;rounded=1;whiteSpace=wrap;html=1;shadow=0;glass=0;sketch=0;fillColor=#f8cecc;strokeColor=#b85450;" vertex="1" parent="1">
          <mxGeometry x="810" y="550" width="30" height="30" as="geometry" />
        </mxCell>
        <mxCell id="lN3gJeHH-t77y-_VV_T1-217" value="-" style="shape=ext;double=1;rounded=1;whiteSpace=wrap;html=1;shadow=0;glass=0;sketch=0;fillColor=#f8cecc;strokeColor=#b85450;" vertex="1" parent="1">
          <mxGeometry x="810" y="580" width="30" height="30" as="geometry" />
        </mxCell>
        <mxCell id="lN3gJeHH-t77y-_VV_T1-218" value="-" style="shape=ext;double=1;rounded=1;whiteSpace=wrap;html=1;shadow=0;glass=0;sketch=0;fillColor=#f8cecc;strokeColor=#b85450;" vertex="1" parent="1">
          <mxGeometry x="810" y="610" width="30" height="30" as="geometry" />
        </mxCell>
        <mxCell id="lN3gJeHH-t77y-_VV_T1-219" value="-" style="shape=ext;double=1;rounded=1;whiteSpace=wrap;html=1;shadow=0;glass=0;sketch=0;fillColor=#f8cecc;strokeColor=#b85450;" vertex="1" parent="1">
          <mxGeometry x="810" y="640" width="30" height="30" as="geometry" />
        </mxCell>
        <mxCell id="lN3gJeHH-t77y-_VV_T1-220" value="-" style="shape=ext;double=1;rounded=1;whiteSpace=wrap;html=1;shadow=0;glass=0;sketch=0;fillColor=#f8cecc;strokeColor=#b85450;" vertex="1" parent="1">
          <mxGeometry x="810" y="430" width="30" height="30" as="geometry" />
        </mxCell>
        <mxCell id="lN3gJeHH-t77y-_VV_T1-221" value="-" style="shape=ext;double=1;rounded=1;whiteSpace=wrap;html=1;shadow=0;glass=0;sketch=0;fillColor=#f8cecc;strokeColor=#b85450;" vertex="1" parent="1">
          <mxGeometry x="810" y="670" width="30" height="30" as="geometry" />
        </mxCell>
        <mxCell id="lN3gJeHH-t77y-_VV_T1-226" style="edgeStyle=orthogonalEdgeStyle;rounded=0;orthogonalLoop=1;jettySize=auto;html=1;exitX=0.5;exitY=1;exitDx=0;exitDy=0;" edge="1" parent="1" source="lN3gJeHH-t77y-_VV_T1-1" target="lN3gJeHH-t77y-_VV_T1-1">
          <mxGeometry relative="1" as="geometry" />
        </mxCell>
      </root>
    </mxGraphModel>
  </diagram>
</mxfile>
